PathFileType	4	(X/Y/Z)	C:\Users\Biomechanik\SynologyDrive\AlexP\Athlete_03\Athlete_3_22_07_06\sq_75_EMG\marker_experimental.trc
DataRate	CameraRate	NumFrames	NumMarkers	Units	OrigDataRate	OrigDataStartFrame	OrigNumFrames
200.000000	200.000000	4	58	mm	200.000000	655	1310
Frame#	Time	BL			BR			Athlete_3_RUA2_Opt:GLAB			Athlete_3_RUA2_Opt:RFHD			Athlete_3_RUA2_Opt:LFHD			Athlete_3_RUA2_Opt:C7			Athlete_3_RUA2_Opt:T6			Athlete_3_RUA2_Opt:SPINMOL			Athlete_3_RUA2_Opt:SPINM2			Athlete_3_RUA2_Opt:SPINM3			Athlete_3_RUA2_Opt:T12			Athlete_3_RUA2_Opt:BELTOL			Athlete_3_RUA2_Opt:BELT2			Athlete_3_RUA2_Opt:BELT3			Athlete_3_RUA2_Opt:SACROL			Athlete_3_RUA2_Opt:SACR2			Athlete_3_RUA2_Opt:SACR3			Athlete_3_RUA2_Opt:LTHOL			Athlete_3_RUA2_Opt:LTH2			Athlete_3_RUA2_Opt:LTH3			Athlete_3_RUA2_Opt:LSHAOL			Athlete_3_RUA2_Opt:LSHA2			Athlete_3_RUA2_Opt:LSHA3			Athlete_3_RUA2_Opt:LHEE			Athlete_3_RUA2_Opt:LTOE			Athlete_3_RUA2_Opt:LM5			Athlete_3_RUA2_Opt:RTHOL			Athlete_3_RUA2_Opt:RTH2			Athlete_3_RUA2_Opt:RTH3			Athlete_3_RUA2_Opt:RSHAOL			Athlete_3_RUA2_Opt:RSHA2			Athlete_3_RUA2_Opt:RSHA3			Athlete_3_RUA2_Opt:RHEE			Athlete_3_RUA2_Opt:RTOE			Athlete_3_RUA2_Opt:RM5			Athlete_3_RUA2_Opt:STRN			Athlete_3_RUA2_Opt:XIPH			Athlete_3_RUA2_Opt:LACR			Athlete_3_RUA2_Opt:LUAOL			Athlete_3_RUA2_Opt:LUA2			Athlete_3_RUA2_Opt:LUA3			Athlete_3_RUA2_Opt:LLAOL			Athlete_3_RUA2_Opt:LLA2			Athlete_3_RUA2_Opt:LLA3			Athlete_3_RUA2_Opt:LWRU			Athlete_3_RUA2_Opt:RACR			Athlete_3_RUA2_Opt:RUAOL			Athlete_3_RUA2_Opt:RUA3			Athlete_3_RUA2_Opt:RLAOL			Athlete_3_RUA2_Opt:RLA2			Athlete_3_RUA2_Opt:RLA3			Athlete_3_RUA2_Opt:RWRU			USERMO0			USERMO1			USERMO2			USERMO3			USERMO4			USERMO5			
		X1	Y1	Z1	X2	Y2	Z2	X3	Y3	Z3	X4	Y4	Z4	X5	Y5	Z5	X6	Y6	Z6	X7	Y7	Z7	X8	Y8	Z8	X9	Y9	Z9	X10	Y10	Z10	X11	Y11	Z11	X12	Y12	Z12	X13	Y13	Z13	X14	Y14	Z14	X15	Y15	Z15	X16	Y16	Z16	X17	Y17	Z17	X18	Y18	Z18	X19	Y19	Z19	X20	Y20	Z20	X21	Y21	Z21	X22	Y22	Z22	X23	Y23	Z23	X24	Y24	Z24	X25	Y25	Z25	X26	Y26	Z26	X27	Y27	Z27	X28	Y28	Z28	X29	Y29	Z29	X30	Y30	Z30	X31	Y31	Z31	X32	Y32	Z32	X33	Y33	Z33	X34	Y34	Z34	X35	Y35	Z35	X36	Y36	Z36	X37	Y37	Z37	X38	Y38	Z38	X39	Y39	Z39	X40	Y40	Z40	X41	Y41	Z41	X42	Y42	Z42	X43	Y43	Z43	X44	Y44	Z44	X45	Y45	Z45	X46	Y46	Z46	X47	Y47	Z47	X48	Y48	Z48	X49	Y49	Z49	X50	Y50	Z50	X51	Y51	Z51	X52	Y52	Z52	X53	Y53	Z53	X54	Y54	Z54	X55	Y55	Z55	X56	Y56	Z56	X57	Y57	Z57	X58	Y58	Z58	

656	3.275	127.2520217895508	1198.494140625	-2232.99267578125	225.1046447753906	1222.31787109375	-13.03577899932854	504.8449401855469	1399.988159179688	-1121.004272460938	441.5200500488281	1411.066772460938	-1046.421752929688	443.5014953613281	1411.186401367188	-1200.990966796875	273.6654357910156	1312.592163085938	-1117.868408203125	125.6455001831055	1187.090087890625	-1122.993774414062	102.5210723876953	1164.176025390625	-1128.650634765625	65.40172576904297	1114.450561523438	-1078.179931640625	72.68287658691406	1109.96484375	-1127.458984375	54.86191940307617	1062.9111328125	-1125.958740234375	15.46389198303223	1040.111450195312	-1122.382202148438	-9.368073463439941	984.4852294921876	-1070.789794921875	-14.85457134246826	985.7879638671876	-1120.644897460938	-42.56345367431641	912.5379638671876	-1148.739135742188	-32.29210662841797	920.8289794921876	-1099.403076171875	-69.19969177246094	866.6257934570314	-1109.154418945312	79.11557006835938	706.5554809570314	-1396.61962890625	58.16064071655273	629.4436035156251	-1402.373291015625	100.005241394043	652.3687744140626	-1418.757934570312	122.3942413330078	327.272674560547	-1525.741821289062	83.81111145019531	258.3024902343751	-1523.420776367188	130.5685424804688	266.9100646972657	-1538.0263671875	70.39595031738281	36.18985748291025	-1481.74072265625	268.3343811035156	49.59064102172861	-1546.463623046875	197.7610626220703	23.6879711151124	-1634.677368164062	81.70323944091797	675.5171508789062	-849.3411254882812	140.3521423339844	640.263427734375	-808.1989135742188	98.11205291748047	619.9793701171875	-826.2732543945312	104.5400390625	321.9784545898438	-735.845703125	140.9427337646484	255.6814575195313	-712.4535522460938	96.85055541992188	260.7431335449219	-735.8480834960938	64.03562927246094	37.47583770751958	-789.5018920898438	258.1902465820312	45.91316986083989	-711.447998046875	189.4606628417969	36.70759582519535	-627.4635009765625	363.1190490722656	1162.784057617188	-1133.816528320312	330.4071044921875	1007.655151367188	-1128.139038085938	238.0715942382812	1249.26513671875	-1315.164184570312	104.5347518920898	1161.615966796875	-1338.146850585938	68.82675933837891	1120.40869140625	-1300.657348632812	71.13269805908203	1116.800537109375	-1351.14501953125	53.35759735107422	1083.9306640625	-1426.38037109375	97.10347747802734	1100.6396484375	-1471.647827148438	93.99501800537109	1132.882934570312	-1433.462158203125	141.1700439453125	1176.758666992188	-1484.56494140625	259.7003173828125	1254.048706054688	-942.3455200195311	140.3820953369141	1144.87255859375	-893.3735351562499	85.31884002685547	1117.801025390625	-888.6646118164061	95.87159729003906	1107.51708984375	-813.1545410156249	140.3462677001953	1153.994750976562	-819.9082031249999	134.5464019775391	1136.447631835938	-772.0347900390624	166.7850189208984	1177.75244140625	-752.4739379882811	0.09189960360527039	0.0247435998171568	-0.173897996544838	0.02346250042319298	0.04657939821481705	-0.03061090037226677	0.02506230026483536	0.04246950149536134	-0.0876488983631134	0.04244650155305862	0.2008460015058518	-0.785161018371582	0.4047040045261383	2.966609954833984	-0.3605589866638182	2.754250049591064	0	0	
657	3.28	127.268928527832	1195.922973632813	-2232.890869140625	225.3887634277344	1219.600219726562	-12.96349334716789	505.0879211425781	1397.76611328125	-1121.021240234375	441.8005676269531	1408.807861328125	-1046.403442382812	443.7003784179688	1408.914428710938	-1200.979370117188	273.9388122558594	1310.272827148438	-1117.769409179688	125.8978958129883	1185.0322265625	-1122.881469726562	102.7619171142578	1162.27734375	-1128.55712890625	65.55272674560547	1112.642700195312	-1078.067138671875	72.81529235839844	1108.129150390625	-1127.347900390625	54.88935089111328	1061.222534179688	-1125.818725585938	15.36614418029785	1038.675537109375	-1122.194213867188	-9.666081428527832	983.1318969726564	-1070.610717773438	-15.18808460235596	984.4851684570314	-1120.46240234375	-43.24825668334961	911.4241333007814	-1148.543701171875	-32.90739822387695	919.6552124023439	-1099.214721679688	-69.97660064697266	865.5649414062501	-1108.963134765625	78.13883972167969	705.8379516601564	-1397.02099609375	57.64356231689453	628.6161499023439	-1403.007934570312	99.30341339111328	651.8588256835939	-1419.3984375	122.7888107299805	327.2015075683595	-1526.695190429688	84.09812927246094	258.302459716797	-1524.096069335938	130.8505249023438	266.7938842773439	-1538.788940429688	70.37953948974609	36.21053314208994	-1481.77587890625	268.3092956542969	49.60994338989267	-1546.517578125	197.7510986328125	23.62755393981944	-1634.71142578125	81.42279815673828	674.7036743164062	-848.8350219726562	140.3500823974609	640.02001953125	-807.6094970703125	98.22065734863281	619.38134765625	-825.537109375	105.2548217773438	321.9262695312501	-735.0642700195312	141.4742279052734	255.4543151855469	-711.898193359375	97.39488220214844	260.7311096191407	-735.2711791992188	64.03327941894531	37.49251174926763	-789.4920043945312	258.1787109375	45.91553878784184	-711.4345703125	189.4475250244141	36.70508575439457	-627.442138671875	363.2921142578125	1160.433715820312	-1133.786254882812	330.2849426269531	1005.279541015625	-1128.144897460938	238.2700958251953	1246.93505859375	-1315.114135742188	104.7043914794922	1159.38427734375	-1338.134399414062	68.93075561523438	1118.236572265625	-1300.632568359375	71.27224731445312	1114.598388671875	-1351.11181640625	53.49724578857422	1081.672241210938	-1426.294067382812	97.25125885009766	1098.343017578125	-1471.570190429688	94.17247772216797	1130.591430664062	-1433.397094726562	141.3370513916016	1174.423217773438	-1484.479858398438	259.9637756347656	1251.667358398438	-942.2643432617186	140.6951904296875	1142.506958007812	-893.2741699218749	85.59126281738281	1115.486450195312	-888.5644531249999	96.17945098876953	1105.1142578125	-813.0689697265624	140.6337585449219	1151.60546875	-819.8363037109374	134.8649291992188	1134.035278320312	-771.9611816406249	167.0722045898438	1175.331665039062	-752.4175415039061	0.09529279917478561	0.02526950091123582	-0.1826139986515045	0.02401899918913841	0.04753600060939789	-0.0295944008976221	0.0253714993596077	0.04192189872264863	-0.09014560282230377	0.04103349894285202	0.202896997332573	-0.7862799763679504	0.4090459942817688	2.968460083007812	-0.3621450066566466	2.753789901733398	0	0	
658	3.285	127.2879333496094	1193.357666015625	-2232.786376953125	225.681396484375	1216.8916015625	-12.88587951660149	505.3230590820312	1395.50390625	-1121.02685546875	442.0710754394531	1406.5107421875	-1046.37548828125	443.8933410644531	1406.61083984375	-1200.958251953125	274.1999206542969	1307.925903320312	-1117.667602539062	126.139274597168	1182.936889648438	-1122.766967773438	102.9946899414062	1160.336059570312	-1128.460693359375	65.69628143310547	1110.790649414062	-1077.952880859375	72.94199371337891	1106.249877929688	-1127.23486328125	54.9138298034668	1059.491333007812	-1125.677856445312	15.26566696166992	1037.197021484375	-1122.009399414062	-9.966144561767578	981.7353515625001	-1070.435791015625	-15.52216911315918	983.1397705078126	-1120.28369140625	-43.926513671875	910.2719726562501	-1148.3544921875	-33.5137939453125	918.4447021484376	-1099.030395507812	-70.74834442138672	864.4703369140626	-1108.7744140625	77.16482543945312	705.0961303710939	-1397.430908203125	57.13240051269531	627.7670898437501	-1403.650756835938	98.60347747802734	651.3274536132814	-1420.047485351562	123.1784820556641	327.1246032714845	-1527.65625	84.38037109375	258.2986145019532	-1524.771728515625	131.1273803710938	266.6718750000001	-1539.55517578125	70.36148071289062	36.23026657104501	-1481.81103515625	268.2822570800781	49.63040924072275	-1546.57275390625	197.7407684326172	23.56672096252451	-1634.745239257812	81.16785430908203	673.8726806640625	-848.335205078125	140.3720245361328	639.7608032226562	-807.0341186523438	98.35037231445312	618.770751953125	-824.802490234375	105.979248046875	321.8709716796876	-734.29443359375	142.0110626220703	255.2241210937501	-711.3518676757812	97.9451904296875	260.7172851562501	-734.7033081054688	64.02942657470703	37.50695800781255	-789.4825439453125	258.1676025390625	45.91735839843754	-711.4235229492188	189.4344482421875	36.70578002929691	-627.4223022460938	363.4536437988281	1158.058227539062	-1133.752807617188	330.1616516113281	1002.880004882813	-1128.147094726562	238.4587860107422	1244.578002929688	-1315.060424804688	104.8612823486328	1157.126708984375	-1338.114135742188	69.02539825439453	1116.036865234375	-1300.601196289062	71.39875030517578	1112.371826171875	-1351.0703125	53.62069320678711	1079.392578125	-1426.20703125	97.38449859619141	1096.024047851562	-1471.490966796875	94.33554840087891	1128.27734375	-1433.330688476562	141.4954528808594	1172.065673828125	-1484.392700195312	260.2201538085938	1249.256225585938	-942.1770629882811	140.9976196289062	1140.113037109375	-893.1728515624999	85.85397338867188	1113.144165039062	-888.4602050781249	96.47541046142578	1102.687866210938	-812.9764404296874	140.9089965820312	1149.192993164062	-819.7608032226561	135.173095703125	1131.599853515625	-771.8818359374999	167.3530120849609	1172.889282226562	-752.3555297851561	0.09893880039453506	0.02589230053126813	-0.1922820061445236	0.02471110038459301	0.04888379946351051	-0.02874279953539371	0.02572409994900227	0.04130319878458977	-0.09234990179538727	0.03994420170783997	0.2056459933519364	-0.7878410220146179	0.4137200117111206	2.970249891281128	-0.3637929856777189	2.753530025482178	0	0	
659	3.29	127.3095932006836	1190.802124023438	-2232.679443359375	225.9830322265625	1214.194702148438	-12.80297279357903	505.5492248535156	1393.201782226562	-1121.021484375	442.3297424316406	1404.175537109375	-1046.3388671875	444.0792236328125	1404.274291992188	-1200.928466796875	274.4486389160156	1305.551147460938	-1117.563354492188	126.3678207397461	1180.804077148438	-1122.649780273438	103.2174758911133	1158.3515625	-1128.36083984375	65.83059692382812	1108.893676757812	-1077.83642578125	73.06106567382812	1104.326049804688	-1127.119018554688	54.93378829956055	1057.715576171875	-1125.535400390625	15.16149234771729	1035.673706054688	-1121.826904296875	-10.26853942871094	980.2933959960939	-1070.264038085938	-15.85705757141113	981.7492065429689	-1120.108154296875	-44.59732055664062	909.0770874023439	-1148.17236328125	-34.1120719909668	917.1943359375001	-1098.851440429688	-71.51433563232422	863.3377685546876	-1108.589111328125	76.20026397705078	704.3295898437501	-1397.847290039062	56.63330078125	626.8963623046876	-1404.30224609375	97.91261291503906	650.7746582031251	-1420.703002929688	123.5670013427734	327.042205810547	-1528.623291015625	84.66046142578125	258.291961669922	-1525.446899414062	131.4025573730469	266.5439453125001	-1540.3232421875	70.34193420410156	36.2491340637208	-1481.846069335938	268.2533264160156	49.65186309814462	-1546.629272460938	197.7298583984375	23.5059642791749	-1634.778930664062	80.93655395507812	673.0216674804688	-847.840087890625	140.4154968261719	639.4838256835938	-806.4696655273438	98.49976348876953	618.1453247070312	-824.0679931640625	106.7145156860352	321.8124694824219	-733.5321655273438	142.5549774169922	254.9908599853516	-710.81201171875	98.50261688232422	260.7011718750001	-734.1407470703125	64.02436828613281	37.5196037292481	-789.4734497070312	258.1570434570312	45.918628692627	-711.4144287109375	189.4211730957031	36.70933151245121	-627.4034423828125	363.602294921875	1155.655883789062	-1133.715698242188	330.0347900390625	1000.454711914063	-1128.144653320312	238.6376190185547	1242.193725585938	-1315.0029296875	105.004150390625	1154.844116210938	-1338.086059570312	69.10926055908203	1113.810424804688	-1300.563110351562	71.51049041748047	1110.121826171875	-1351.020874023438	53.72625350952148	1077.093505859375	-1426.1201171875	97.50166320800781	1093.684448242188	-1471.410034179688	94.48248291015625	1125.942626953125	-1433.262329101562	141.6442565917969	1169.687622070312	-1484.303344726562	260.4692077636719	1246.816284179688	-942.0834350585936	141.2867584228516	1137.693237304688	-893.0686645507811	86.10521697998047	1110.776977539062	-888.3513793945311	96.75737762451172	1100.241088867188	-812.8764648437499	141.1706390380859	1146.759399414062	-819.6809692382811	135.4693298339844	1129.143920898438	-771.7965087890624	167.6266784667969	1170.427124023438	-752.2877807617186	0.1027719974517822	0.02658330090343954	-0.2028329968452454	0.02553859911859035	0.05058129876852036	-0.02803819999098777	0.02612829953432083	0.04055599868297578	-0.09412679821252823	0.03916050121188164	0.2089419960975648	-0.7897289991378784	0.418502002954483	2.97199010848999	-0.3654139935970305	2.753509998321533	0	0	
